# xmcd
#
# Track frame offsets:
#	150
#	11180
#	26112
#	39658
#	47197
#	58530
#	68973
#	78351
#	90003
#	99486
#	118535
#	129998
#	142249
#	154430
#
# Disc length: 2198 seconds
#
# Revision: 1
# Processed by: cddbd v1.4PL0 Copyright (c) Steve Scherf et al.
# Submitted via: audiograbber 1.80.04
#
DISCID=bd08940e
DTITLE=Dolly Parton - I Will Always Love You
DYEAR=1900
DGENRE=Country
TTITLE0=Jolene
TTITLE1=I Will Always Love You
TTITLE2=Coat Of Many Colours
TTITLE3=My Tennessee Mountain Home
TTITLE4=Making Believe
TTITLE5=It Wasn't God Who Made Honky Tonk Angels
TTITLE6=Do I Ever Cross Your Mind
TTITLE7=Two Little Orphans
TTITLE8=Release Me
TTITLE9=Light Of A Clear Blue Morning
TTITLE10=Letter To Heaven
TTITLE11=Little Blossom
TTITLE12=Is It Cool To Know Somebody Loves You
TTITLE13=It's All I Can Do From Falling In Love
EXTD=
EXTT0=
EXTT1=
EXTT2=
EXTT3=
EXTT4=
EXTT5=
EXTT6=
EXTT7=
EXTT8=
EXTT9=
EXTT10=
EXTT11=
EXTT12=
EXTT13=
PLAYORDER=
